/vscmnt/brussel_pixiu_data/_data_brussel/112/vsc11236/PredSimResults/SUBJ09mtu3D/worker6.mot
version=1
nRows=9
nColumns=50
inDegrees=yes
endheader
                time	         pelvis_tilt	         pelvis_list	     pelvis_rotation	           pelvis_tx	           pelvis_ty	           pelvis_tz	       hip_flexion_r	     hip_adduction_r	      hip_rotation_r	        knee_angle_r	       ankle_angle_r	         mtp_angle_r	       hip_flexion_l	     hip_adduction_l	      hip_rotation_l	        knee_angle_l	       ankle_angle_l	         mtp_angle_l	    lumbar_extension	      lumbar_bending	     lumbar_rotation	 ercspn_r/activation	 intobl_r/activation	 extobl_r/activation	    abd_r/activation	    add_r/activation	hamstrings_r/activation	bifemsh_r/activation	glut_max_r/activation	iliopsoas_r/activation	rect_fem_r/activation	  vasti_r/activation	gastroc_r/activation	 soleus_r/activation	tib_ant_r/activation	 ercspn_l/activation	 intobl_l/activation	 extobl_l/activation	    abd_l/activation	    add_l/activation	hamstrings_l/activation	bifemsh_l/activation	glut_max_l/activation	iliopsoas_l/activation	rect_fem_l/activation	  vasti_l/activation	gastroc_l/activation	 soleus_l/activation	tib_ant_l/activation	
          0.10000011	          3.64412539	          1.51045605	         -2.00851601	          0.12400642	          1.07374292	          0.00045963	        -15.07285409	         -1.65629305	         26.11740396	        -21.49344024	        -58.42805498	          7.35305179	        -13.75265334	          4.70687270	         26.32007735	        -30.29323694	        -51.62418147	          4.26411479	          2.91115914	         -1.80538753	          1.98497027	          0.30191115	          0.15743137	          0.73205375	          0.23960404	          0.41878166	          0.01296287	          0.84770974	          0.07364722	          0.95624491	          0.81737257	          0.38318928	          0.15686736	          0.03167846	          0.32366668	          0.38719312	          0.69730851	          0.79761549	          0.14334645	          0.78702658	          0.02391128	          0.52727868	          0.02346146	          0.97828110	          0.80786066	          0.10713086	          0.09775446	          0.06372446	          0.89533406	
          0.10200011	          3.66431686	          1.60391415	         -1.95356191	          0.12580198	          1.07263167	          0.00015447	        -15.31463672	         -1.80604838	         26.08414785	        -21.20241947	        -58.20550137	          7.71709956	        -13.51804178	          4.91165315	         26.16418024	        -30.37944116	        -51.72655091	          4.05554415	          2.91564029	         -1.88369656	          2.06182640	          0.29177915	          0.15257725	          0.70759506	          0.24611953	          0.46452670	          0.01324767	          0.86313006	          0.07379687	          0.95772475	          0.79172031	          0.37354961	          0.15051572	          0.03158099	          0.31357580	          0.37794310	          0.67598547	          0.77866152	          0.14293913	          0.81102978	          0.02494803	          0.51075876	          0.02351414	          0.97489743	          0.82928732	          0.19347129	          0.09548095	          0.06361860	          0.88586623	
          0.10400011	          3.68601543	          1.68193153	         -1.88882831	          0.12722716	          1.07262411	         -0.00015606	        -15.50406955	         -1.93641988	         26.06181727	        -20.90971328	        -57.97612147	          8.06528484	        -13.26299233	          5.07932058	         26.00028561	        -30.13562729	        -51.88976791	          3.86282667	          2.91443260	         -1.93033750	          2.11032252	          0.28253464	          0.14749611	          0.68434630	          0.24174874	          0.51022548	          0.01351108	          0.87676191	          0.07349167	          0.95903716	          0.77249854	          0.36406340	          0.14430022	          0.03154595	          0.30379338	          0.38198292	          0.65550213	          0.75535572	          0.14285082	          0.79830022	          0.02599994	          0.49470450	          0.02311556	          0.96884313	          0.84814298	          0.28922999	          0.09303891	          0.06310476	          0.89783211	
          0.10600011	          3.70561098	          1.74448950	         -1.81408241	          0.12828770	          1.07524774	         -0.00046970	        -15.56780883	         -2.06822607	         26.05341063	        -20.80213565	        -57.75824717	          8.40085428	        -13.12390524	          5.21368417	         25.83636337	        -29.79013728	        -52.11536779	          3.62654168	          2.90623856	         -1.95063866	          2.11685135	          0.27394453	          0.20286494	          0.66210124	          0.23711356	          0.55414980	          0.01444155	          0.88882617	          0.07281738	          0.96019865	          0.79501276	          0.35473331	          0.13822589	          0.03164253	          0.29427378	          0.40537718	          0.63576599	          0.73156310	          0.14353496	          0.77297744	          0.02694356	          0.47915363	          0.02168928	          0.95934344	          0.86467971	          0.37369060	          0.09092895	          0.06283757	          0.90840629	
          0.10800012	          3.72795750	          1.78676911	         -1.73045087	          0.12899261	          1.07926485	         -0.00078059	        -15.35399547	         -2.19525068	         26.06076731	        -20.96641672	        -57.57018086	          8.71223790	        -13.09768076	          5.32680985	         25.67677129	        -29.27209512	        -52.41596771	          3.36326951	          2.89200912	         -1.94248886	          2.08159694	          0.26590387	          0.29630531	          0.64053300	          0.23233397	          0.57598157	          0.01433840	          0.89948171	          0.07181673	          0.96120905	          0.81726143	          0.34575377	          0.13226684	          0.03179518	          0.28501232	          0.44355303	          0.61656425	          0.70749396	          0.14408142	          0.74833180	          0.02792232	          0.46415561	          0.01928257	          0.94983207	          0.87913104	          0.44792242	          0.08892007	          0.06254798	          0.91772691	
          0.11000012	          3.75986155	          1.81071968	         -1.63963344	          0.12935364	          1.08272782	         -0.00108141	        -15.25073355	         -2.25996539	         26.07894163	        -21.00477588	        -57.44539664	          8.98920065	        -13.08744811	          5.43434717	         25.53870548	        -28.87309729	        -52.76453547	          3.05934288	          2.88043079	         -1.93436645	          2.08892212	          0.27281940	          0.37912023	          0.62126584	          0.22985481	          0.59463951	          0.01624280	          0.90888847	          0.07123004	          0.96206726	          0.83676112	          0.33721551	          0.12650739	          0.03195280	          0.27606469	          0.45247897	          0.59780482	          0.68412380	          0.14376002	          0.72453032	          0.02876457	          0.44969368	          0.01530019	          0.92920296	          0.89173058	          0.44502100	          0.08698966	          0.06220906	          0.92596528	
          0.11200012	          3.79974631	          1.81733297	         -1.54095204	          0.12937892	          1.08418950	         -0.00136934	        -15.24367267	         -2.25436112	         26.10650476	        -20.99217905	        -57.37020380	          9.24392441	        -12.99784736	          5.56107122	         25.43200053	        -28.42938954	        -53.20418906	          2.73053177	          2.86699919	         -1.91879014	          2.11386560	          0.27102323	          0.45243829	          0.65804389	          0.22579165	          0.64213789	          0.01475606	          0.91720742	          0.07093166	          0.96281644	          0.85381369	          0.32911121	          0.12110926	          0.03214013	          0.26733551	          0.43961756	          0.57950232	          0.66161393	          0.14216660	          0.70187189	          0.02948135	          0.43574651	          0.01275374	          0.89905212	          0.90268741	          0.48731080	          0.08512978	          0.06184434	          0.93325314	
          0.11400012	          3.83831659	          1.80695591	         -1.43531247	          0.12907269	          1.08554456	         -0.00163920	        -15.24769918	         -2.20016377	         26.14833886	        -20.88372354	        -57.33740881	          9.48154910	        -12.90082835	          5.68971470	         25.35406056	        -28.16677051	        -53.71021365	          2.37338502	          2.84777613	         -1.89135479	          2.14020205	          0.34900809	          0.51694259	          0.69740189	          0.22242554	          0.68440947	          0.01777677	          0.92442833	          0.07102319	          0.96347424	          0.86872407	          0.32138840	          0.13134617	          0.03238667	          0.25892060	          0.42719432	          0.56173505	          0.63972407	          0.14000528	          0.68009453	          0.03011112	          0.42229645	          0.01137027	          0.86996655	          0.91218578	          0.54685798	          0.08333760	          0.06153970	          0.93972826	
          0.11600012	          3.78034807	          1.78119385	         -1.32429585	          0.12844057	          1.08670899	         -0.00188938	        -15.29543555	         -2.14045114	         26.20380723	        -20.70344171	        -57.34977705	          9.70540352	        -12.81048900	          5.78827697	         25.30234478	        -27.96299533	        -54.26002215	          2.02772051	          2.82293073	         -1.84762232	          2.15622535	          0.39490183	          0.57292180	          0.73210062	          0.21969822	          0.72165790	          0.01496273	          0.93051280	          0.07152818	          0.96409334	          0.88183731	          0.31393820	          0.13226276	          0.03269969	          0.25081129	          0.41533612	          0.54461820	          0.61837472	          0.13714050	          0.65926306	          0.03066293	          0.40930554	          0.01662687	          0.84187125	          0.92042031	          0.59996550	          0.08154721	          0.06138318	          0.94513129	
